REM DIRINDEX 1\2,1\3\5,1\3\6,1\4\7,1\4\8
REM DIRNAME folder01,folder02,folder03,folder04,folder05,folder06,folder07,folder08
TITLE ""
FILE "EG_E1.5_23.mp3" MP3
  TRACK 01 AUDIO
    TITLE "0:"
    INDEX 01 00:00:00
  TRACK 02 AUDIO
    TITLE "2:cjc139_0777"
    INDEX 01 00:00:17
  TRACK 03 AUDIO
    TITLE "0:"
    INDEX 01 00:02:18
  TRACK 04 AUDIO
    TITLE "2:cjc139_0778"
    INDEX 01 00:03:39
  TRACK 05 AUDIO
    TITLE "0:"
    INDEX 01 00:05:71
  TRACK 06 AUDIO
    TITLE "2:cjc139_0779"
    INDEX 01 00:07:17
  TRACK 07 AUDIO
    TITLE "0:"
    INDEX 01 00:09:53
  TRACK 08 AUDIO
    TITLE "2:cjc139_0780"
    INDEX 01 00:10:74
  TRACK 09 AUDIO
    TITLE "0:"
    INDEX 01 00:14:11
  TRACK 10 AUDIO
    TITLE "2:cjc139_0781"
    INDEX 01 00:15:32
  TRACK 11 AUDIO
    TITLE "0:"
    INDEX 01 00:17:45
  TRACK 12 AUDIO
    TITLE "2:cjc139_0782"
    INDEX 01 00:18:66
  TRACK 13 AUDIO
    TITLE "0:"
    INDEX 01 00:21:35
  TRACK 14 AUDIO
    TITLE "2:cjc139_0783"
    INDEX 01 00:22:58
  TRACK 15 AUDIO
    TITLE "0:"
    INDEX 01 00:25:25
  TRACK 16 AUDIO
    TITLE "2:cjc139_0784"
    INDEX 01 00:26:48
  TRACK 17 AUDIO
    TITLE "0:"
    INDEX 01 00:29:46
  TRACK 18 AUDIO
    TITLE "2:cjc139_0785"
    INDEX 01 00:30:71
  TRACK 19 AUDIO
    TITLE "0:"
    INDEX 01 00:33:21
  TRACK 20 AUDIO
    TITLE "2:cjc139_0786"
    INDEX 01 00:34:42
  TRACK 21 AUDIO
    TITLE "0:"
    INDEX 01 00:37:14
  TRACK 22 AUDIO
    TITLE "2:cjc139_0787"
    INDEX 01 00:38:37
  TRACK 23 AUDIO
    TITLE "0:"
    INDEX 01 00:40:73
  TRACK 24 AUDIO
    TITLE "2:cjc139_0788"
    INDEX 01 00:42:19
  TRACK 25 AUDIO
    TITLE "0:"
    INDEX 01 00:44:50
  TRACK 26 AUDIO
    TITLE "2:cjc139_0789"
    INDEX 01 00:45:73
  TRACK 27 AUDIO
    TITLE "0:"
    INDEX 01 00:49:02
  TRACK 28 AUDIO
    TITLE "2:cjc139_0790"
    INDEX 01 00:50:25
  TRACK 29 AUDIO
    TITLE "0:"
    INDEX 01 00:52:67
  TRACK 30 AUDIO
    TITLE "2:cjc139_0791"
    INDEX 01 00:54:15
  TRACK 31 AUDIO
    TITLE "0:"
    INDEX 01 00:56:71
  TRACK 32 AUDIO
    TITLE "2:cjc139_0792"
    INDEX 01 00:58:17
  TRACK 33 AUDIO
    TITLE "0:"
    INDEX 01 01:01:25
  TRACK 34 AUDIO
    TITLE "2:cjc139_0793"
    INDEX 01 01:02:48
  TRACK 35 AUDIO
    TITLE "0:"
    INDEX 01 01:05:09
  TRACK 36 AUDIO
    TITLE "2:cjc139_0794"
    INDEX 01 01:06:30
  TRACK 37 AUDIO
    TITLE "0:"
    INDEX 01 01:08:70
  TRACK 38 AUDIO
    TITLE "2:cjc139_0795"
    INDEX 01 01:10:14
  TRACK 39 AUDIO
    TITLE "0:"
    INDEX 01 01:11:51
  TRACK 40 AUDIO
    TITLE "2:cjc139_0796"
    INDEX 01 01:12:73
  TRACK 41 AUDIO
    TITLE "0:"
    INDEX 01 01:15:17
  TRACK 42 AUDIO
    TITLE "2:cjc139_0797"
    INDEX 01 01:16:40
  TRACK 43 AUDIO
    TITLE "0:"
    INDEX 01 01:18:45
  TRACK 44 AUDIO
    TITLE "2:cjc139_0798"
    INDEX 01 01:19:68
  TRACK 45 AUDIO
    TITLE "0:"
    INDEX 01 01:22:01
  TRACK 46 AUDIO
    TITLE "2:cjc139_0799"
    INDEX 01 01:23:22
  TRACK 47 AUDIO
    TITLE "0:"
    INDEX 01 01:25:31
  TRACK 48 AUDIO
    TITLE "2:cjc139_0800"
    INDEX 01 01:26:52
  TRACK 49 AUDIO
    TITLE "0:"
    INDEX 01 01:28:31
  TRACK 50 AUDIO
    TITLE "2:cjc139_0801"
    INDEX 01 01:29:56
  TRACK 51 AUDIO
    TITLE "0:"
    INDEX 01 01:32:21
  TRACK 52 AUDIO
    TITLE "2:cjc139_0802"
    INDEX 01 01:33:42
  TRACK 53 AUDIO
    TITLE "0:"
    INDEX 01 01:35:31
  TRACK 54 AUDIO
    TITLE "2:cjc139_0803"
    INDEX 01 01:36:56
  TRACK 55 AUDIO
    TITLE "0:"
    INDEX 01 01:38:57
  TRACK 56 AUDIO
    TITLE "2:cjc139_0804"
    INDEX 01 01:40:05
  TRACK 57 AUDIO
    TITLE "0:"
    INDEX 01 01:42:57
  TRACK 58 AUDIO
    TITLE "2:cjc139_0805"
    INDEX 01 01:44:05
  TRACK 59 AUDIO
    TITLE "0:"
    INDEX 01 01:46:45
  TRACK 60 AUDIO
    TITLE "2:cjc139_0806"
    INDEX 01 01:47:68
  TRACK 61 AUDIO
    TITLE "0:"
    INDEX 01 01:50:17
  TRACK 62 AUDIO
    TITLE "2:cjc139_0807"
    INDEX 01 01:51:38
  TRACK 63 AUDIO
    TITLE "0:"
    INDEX 01 01:53:31
  TRACK 64 AUDIO
    TITLE "2:cjc139_0808"
    INDEX 01 01:54:56
  TRACK 65 AUDIO
    TITLE "0:"
    INDEX 01 01:56:49
  TRACK 66 AUDIO
    TITLE "2:cjc139_0809"
    INDEX 01 01:57:74
  TRACK 67 AUDIO
    TITLE "0:"
    INDEX 01 02:00:25
  TRACK 68 AUDIO
    TITLE "2:cjc139_0810"
    INDEX 01 02:01:46
  TRACK 69 AUDIO
    TITLE "0:"
    INDEX 01 02:04:02
  TRACK 70 AUDIO
    TITLE "2:cjc139_0811"
    INDEX 01 02:05:25
  TRACK 71 AUDIO
    TITLE "0:"
    INDEX 01 02:07:35
  TRACK 72 AUDIO
    TITLE "2:cjc139_0812"
    INDEX 01 02:08:62
  TRACK 73 AUDIO
    TITLE "0:"
    INDEX 01 02:11:35
  TRACK 74 AUDIO
    TITLE "2:cjc139_0813"
    INDEX 01 02:12:58
  TRACK 75 AUDIO
    TITLE "0:"
    INDEX 01 02:15:21
  TRACK 76 AUDIO
    TITLE "2:cjc139_0814"
    INDEX 01 02:16:44
  TRACK 77 AUDIO
    TITLE "0:"
    INDEX 01 02:19:35
  TRACK 78 AUDIO
    TITLE "2:cjc139_0815"
    INDEX 01 02:20:60
  TRACK 79 AUDIO
    TITLE "0:"
    INDEX 01 02:23:28
  TRACK 80 AUDIO
    TITLE "2:cjc139_0816"
    INDEX 01 02:24:49
  TRACK 81 AUDIO
    TITLE "0:"
    INDEX 01 02:28:18
  TRACK 82 AUDIO
    TITLE "2:cjc139_0817"
    INDEX 01 02:29:37
  TRACK 83 AUDIO
    TITLE "0:"
    INDEX 01 02:32:53
